<svg width="184" height="37" viewBox="0 0 184 37" fill="none" xmlns="http://www.w3.org/2000/svg">
<g clip-path="url(#clip0_8_140)">
<path d="M3.39702 31V9.18182H6.68892V28.1662H16.5753V31H3.39702ZM23.2869 31H19.7926L27.6442 9.18182H31.4474L39.299 31H35.8047L29.6364 13.1449H29.4659L23.2869 31ZM23.8729 22.456H35.2081V25.2259H23.8729V22.456ZM60.0598 9.18182V31H57.0343L45.9441 14.9986H45.7417V31H42.4498V9.18182H45.4966L56.5975 25.2045H56.7999V9.18182H60.0598ZM79.6275 16.0746C79.4215 15.4283 79.1445 14.8494 78.7965 14.3381C78.4556 13.8196 78.0472 13.3793 77.5714 13.017C77.0955 12.6477 76.5522 12.3672 75.9414 12.1754C75.3377 11.9837 74.6737 11.8878 73.9492 11.8878C72.7205 11.8878 71.6126 12.2038 70.6254 12.8359C69.6381 13.468 68.8569 14.3949 68.2816 15.6165C67.7134 16.831 67.4293 18.3189 67.4293 20.0803C67.4293 21.8487 67.717 23.3437 68.2923 24.5653C68.8675 25.7869 69.6559 26.7138 70.6573 27.3459C71.6587 27.978 72.7987 28.294 74.0771 28.294C75.2631 28.294 76.2965 28.0526 77.1772 27.5696C78.065 27.0866 78.7504 26.4048 79.2333 25.5241C79.7234 24.6364 79.9684 23.5923 79.9684 22.392L80.8207 22.5518H74.5778V19.8352H83.1538V22.3175C83.1538 24.1499 82.7631 25.7408 81.9819 27.0902C81.2077 28.4325 80.1353 29.4695 78.7646 30.201C77.4009 30.9325 75.8384 31.2983 74.0771 31.2983C72.1026 31.2983 70.3697 30.8438 68.8782 29.9347C67.3938 29.0256 66.2362 27.7365 65.4052 26.0675C64.5742 24.3913 64.1587 22.4027 64.1587 20.1016C64.1587 18.3615 64.4002 16.799 64.8832 15.4141C65.3661 14.0291 66.0444 12.8537 66.918 11.8878C67.7987 10.9148 68.832 10.1726 70.0181 9.66122C71.2113 9.14276 72.5146 8.88352 73.9279 8.88352C75.1069 8.88352 76.2042 9.05753 77.2198 9.40554C78.2425 9.75355 79.1516 10.2472 79.9471 10.8864C80.7496 11.5256 81.4137 12.2855 81.9393 13.1662C82.4648 14.0398 82.82 15.0092 83.0046 16.0746H79.6275Z" fill="#AEDEFC"/>
<path d="M88.397 31V9.18182H91.6889V28.1662H101.575V31H88.397ZM105.331 31V9.18182H119.01V12.0156H108.623V18.6634H118.296V21.4865H108.623V28.1662H119.137V31H105.331ZM125.25 31H121.756L129.607 9.18182H133.41L141.262 31H137.768L131.599 13.1449H131.429L125.25 31ZM125.836 22.456H137.171V25.2259H125.836V22.456ZM144.413 31V9.18182H152.19C153.88 9.18182 155.283 9.47301 156.398 10.0554C157.52 10.6378 158.358 11.4439 158.912 12.4737C159.466 13.4964 159.743 14.679 159.743 16.0213C159.743 17.3565 159.462 18.532 158.901 19.5476C158.347 20.5561 157.509 21.3409 156.387 21.902C155.272 22.4631 153.869 22.7436 152.179 22.7436H146.288V19.9098H151.881C152.946 19.9098 153.813 19.7571 154.48 19.4517C155.155 19.1463 155.648 18.7024 155.961 18.12C156.273 17.5376 156.43 16.8381 156.43 16.0213C156.43 15.1974 156.27 14.4837 155.95 13.88C155.638 13.2763 155.144 12.8146 154.469 12.495C153.802 12.1683 152.925 12.005 151.838 12.005H147.705V31H144.413ZM155.183 21.1562L160.574 31H156.824L151.54 21.1562H155.183ZM181.359 9.18182V31H178.333L167.243 14.9986H167.04V31H163.749V9.18182H166.795L177.896 25.2045H178.099V9.18182H181.359Z" fill="#F875AA"/>
</g>
<defs>
<clipPath id="clip0_8_140">
<rect width="184" height="37" fill="white"/>
</clipPath>
</defs>
</svg>
